# xmcd
#
# Track frame offsets: 
#        150
#        11620
#        25767
#        47437
#        57445
#        70967
#        83532
#        105132
#        119745
#        131495
#        141540
#        154867
#        168247
#
# Disc length: 2393 seconds
#
# Revision: 1
# Processed by: cddbd v1.5.2PL0 Copyright (c) Steve Scherf et al.
# Submitted via: ExactAudioCopy v0.99pb5
#
DISCID=a609570d
DTITLE=Barbara Lamb - Tonight I Feel Like Texas
DYEAR=1900
DGENRE=
TTITLE0=Barefoot Nellie
TTITLE1=Herman's Rag
TTITLE2=Tonight I Feel Like Texas
TTITLE3=Forked Deer
TTITLE4=Riding On The Rio
TTITLE5=Satin Doll
TTITLE6=Say Old Man, Can You Play The Fiddle?
TTITLE7=I'll Grab My Saddlehorn and Blow
TTITLE8=Bill Cheatham
TTITLE9=You Done Me Wrong
TTITLE10=Tennessee Breakdown
TTITLE11=Birthday Waltz
TTITLE12=Bumblebee in the Gourdvine
EXTD=
EXTT0=
EXTT1=
EXTT2=
EXTT3=
EXTT4=
EXTT5=
EXTT6=
EXTT7=
EXTT8=
EXTT9=
EXTT10=
EXTT11=
EXTT12=
PLAYORDER=
